<svg xmlns="http://www.w3.org/2000/svg" xmlns:svg="http://www.w3.org/2000/svg" id="svg2" width="65" height="65" version="1.1" viewBox="0 0 65 65"><metadata id="metadata12"/><g id="g4" fill="none" fill-rule="nonzero" style="fill:#f57c00;fill-opacity:1"><path id="path6" fill="#FFF" d="M47.282 29.54c.603 4.15-.663 8.52-3.9 11.71-4.783 4.718-12.16 5.298-17.587 1.754l3.802-3.707-13.973-1.948 1.95 13.644 4.267-4.087c7.663 5.648 18.53 5.115 25.493-1.755 4.036-3.983 5.877-9.27 5.648-14.486l-5.698-1.125zm-23.66-7.788c4.78-4.72 12.156-5.303 17.583-1.755l-3.808 3.705 13.972 1.95L49.42 12l-4.26 4.097c-7.665-5.654-18.53-5.114-25.493 1.755-4.036 3.98-5.875 9.267-5.648 14.483l5.698 1.123c-.603-4.15.666-8.516 3.903-11.706z" style="fill:#f57c00;fill-opacity:1"/></g></svg>