<svg xmlns="http://www.w3.org/2000/svg" xmlns:svg="http://www.w3.org/2000/svg" id="svg2" width="65" height="65" version="1.1" viewBox="0 0 65 65"><metadata id="metadata24"/><g id="g4" fill="none" fill-rule="nonzero"><g id="g6" transform="translate(12.44 13.71)"><path id="path8" fill="#4FBA6F" d="M14.68 1.238v35.038c0 .702 2.5 1.27 5.585 1.27s5.585-.568 5.585-1.27V1.24H14.68z" style="fill:#f57c00;fill-opacity:1"/><ellipse id="ellipse10" cx="20.265" cy="1.301" fill="#24AE5F" d="m 25.850999,1.301 c 0,0.7014016 -2.500937,1.27 -5.586,1.27 -3.085062,0 -5.586,-0.5685984 -5.586,-1.27 0,-0.70140162 2.500938,-1.26999998 5.586,-1.26999998 3.085063,0 5.586,0.56859836 5.586,1.26999998 z" rx="5.586" ry="1.27" style="fill:#e16800;fill-opacity:1"/><path id="path12" fill="#3B97D3" d="M.206 14.948V36.2c0 .703 2.5 1.27 5.586 1.27 3.085 0 5.586-.567 5.586-1.27V14.95H.206z" style="fill:#f57c00;fill-opacity:1"/><ellipse id="ellipse14" cx="5.792" cy="14.948" fill="#2980BA" d="m 11.378,14.948 c 0,0.701402 -2.5009376,1.27 -5.5860002,1.27 -3.0850626,0 -5.58599995,-0.568598 -5.58599995,-1.27 0,-0.701402 2.50093735,-1.27 5.58599995,-1.27 3.0850626,0 5.5860002,0.568598 5.5860002,1.27 z" rx="5.586" ry="1.27" style="fill:#e16800;fill-opacity:1"/><path id="path16" fill="#E64C3C" d="M29.15 6.145V36.2c0 .703 2.502 1.27 5.587 1.27s5.586-.567 5.586-1.27V6.146H29.15z" style="fill:#f57c00;fill-opacity:1"/><ellipse id="ellipse18" cx="34.737" cy="6.145" fill="#C03A2B" d="m 40.322999,6.145 c 0,0.7014016 -2.500937,1.27 -5.585999,1.27 -3.085063,0 -5.586,-0.5685984 -5.586,-1.27 0,-0.7014016 2.500937,-1.27 5.586,-1.27 3.085062,0 5.585999,0.5685984 5.585999,1.27 z" rx="5.586" ry="1.27" style="fill:#e16800;fill-opacity:1"/></g></g></svg>